HIERARCHY
ROOT mixamorig:Hips
{
	OFFSET 0.000000 201.639420 0.000000
	CHANNELS 6 Xposition Yposition Zposition Xrotation Yrotation Zrotation
	JOINT mixamorig:Spine
	{
		OFFSET 0.006200 19.524994 -2.481800
		CHANNELS 3 Xrotation Yrotation Zrotation
		JOINT mixamorig:Spine1
		{
			OFFSET -0.000900 22.835007 -2.825400
			CHANNELS 3 Xrotation Yrotation Zrotation
			JOINT mixamorig:Spine2
			{
				OFFSET -0.020600 26.552490 -3.193300
				CHANNELS 3 Xrotation Yrotation Zrotation
				JOINT mixamorig:Neck
				{
					OFFSET -0.060000 30.701813 1.352200
					CHANNELS 3 Xrotation Yrotation Zrotation
					JOINT mixamorig:Head
					{
						OFFSET -0.087200 22.547607 3.670900
						CHANNELS 3 Xrotation Yrotation Zrotation
						JOINT mixamorig:HeadTop_End
						{
							OFFSET -0.830600 40.355194 7.893500
							CHANNELS 3 Xrotation Yrotation Zrotation
							End Site
							{
								OFFSET 0.000000 30.592346 0.000000
							}
						}
						JOINT mixamorig:RightEye
						{
							OFFSET -6.302100 18.118591 16.197100
							CHANNELS 3 Xrotation Yrotation Zrotation
							End Site
							{
								OFFSET 0.000000 30.592346 0.000000
							}
						}
						JOINT mixamorig:LeftEye
						{
							OFFSET 6.741500 18.382690 16.401899
							CHANNELS 3 Xrotation Yrotation Zrotation
							End Site
							{
								OFFSET 0.000000 30.592346 0.000000
							}
						}
					}
				}
				JOINT mixamorig:LeftShoulder
				{
					OFFSET 11.924900 18.230499 1.425400
					CHANNELS 3 Xrotation Yrotation Zrotation
					JOINT mixamorig:LeftArm
					{
						OFFSET 25.435989 -0.697632 -5.229300
						CHANNELS 3 Xrotation Yrotation Zrotation
						JOINT mixamorig:LeftForeArm
						{
							OFFSET 54.684776 0.000000 0.000000
							CHANNELS 3 Xrotation Yrotation Zrotation
							JOINT mixamorig:LeftHand
							{
								OFFSET 55.098175 0.000000 0.000000
								CHANNELS 3 Xrotation Yrotation Zrotation
								JOINT mixamorig:LeftHandMiddle1
								{
									OFFSET 23.369751 0.000000 0.000000
									CHANNELS 3 Xrotation Yrotation Zrotation
									JOINT mixamorig:LeftHandMiddle2
									{
										OFFSET 6.378677 0.000000 0.000000
										CHANNELS 3 Xrotation Yrotation Zrotation
										JOINT mixamorig:LeftHandMiddle3
										{
											OFFSET 6.148331 0.000000 0.000000
											CHANNELS 3 Xrotation Yrotation Zrotation
											JOINT mixamorig:LeftHandMiddle4
											{
												OFFSET 6.582504 0.000000 0.000000
												CHANNELS 3 Xrotation Yrotation Zrotation
												End Site
												{
													OFFSET -1.168900 6.395691 1.028606
												}
											}
										}
									}
								}
								JOINT mixamorig:LeftHandThumb1
								{
									OFFSET 7.235672 -3.848206 5.434273
									CHANNELS 3 Xrotation Yrotation Zrotation
									JOINT mixamorig:LeftHandThumb2
									{
										OFFSET 6.568451 -3.792297 3.792300
										CHANNELS 3 Xrotation Yrotation Zrotation
										JOINT mixamorig:LeftHandThumb3
										{
											OFFSET 6.063080 -3.500519 3.500518
											CHANNELS 3 Xrotation Yrotation Zrotation
											JOINT mixamorig:LeftHandThumb4
											{
												OFFSET 4.793182 -2.767334 2.767349
												CHANNELS 3 Xrotation Yrotation Zrotation
												End Site
												{
													OFFSET 0.101639 6.054260 1.275483
												}
											}
										}
									}
								}
								JOINT mixamorig:LeftHandIndex1
								{
									OFFSET 23.101074 -0.309540 4.992809
									CHANNELS 3 Xrotation Yrotation Zrotation
									JOINT mixamorig:LeftHandIndex2
									{
										OFFSET 6.226883 0.000000 0.000000
										CHANNELS 3 Xrotation Yrotation Zrotation
										JOINT mixamorig:LeftHandIndex3
										{
											OFFSET 6.094330 0.000000 0.000000
											CHANNELS 3 Xrotation Yrotation Zrotation
											JOINT mixamorig:LeftHandIndex4
											{
												OFFSET 5.482605 0.000000 0.000000
												CHANNELS 3 Xrotation Yrotation Zrotation
												End Site
												{
													OFFSET -1.427902 5.233032 0.797164
												}
											}
										}
									}
								}
								JOINT mixamorig:LeftHandRing1
								{
									OFFSET 22.299240 0.021149 -3.964172
									CHANNELS 3 Xrotation Yrotation Zrotation
									JOINT mixamorig:LeftHandRing2
									{
										OFFSET 6.321869 0.000000 0.000000
										CHANNELS 3 Xrotation Yrotation Zrotation
										JOINT mixamorig:LeftHandRing3
										{
											OFFSET 5.899796 0.000000 0.000000
											CHANNELS 3 Xrotation Yrotation Zrotation
											JOINT mixamorig:LeftHandRing4
											{
												OFFSET 6.517899 0.000000 0.000000
												CHANNELS 3 Xrotation Yrotation Zrotation
												End Site
												{
													OFFSET -1.637299 6.232208 0.980890
												}
											}
										}
									}
								}
								JOINT mixamorig:LeftHandPinky1
								{
									OFFSET 20.463791 -0.302338 -8.562233
									CHANNELS 3 Xrotation Yrotation Zrotation
									JOINT mixamorig:LeftHandPinky2
									{
										OFFSET 6.908646 0.000000 0.000000
										CHANNELS 3 Xrotation Yrotation Zrotation
										JOINT mixamorig:LeftHandPinky3
										{
											OFFSET 4.622849 0.000000 0.000000
											CHANNELS 3 Xrotation Yrotation Zrotation
											JOINT mixamorig:LeftHandPinky4
											{
												OFFSET 5.216080 0.000000 0.000000
												CHANNELS 3 Xrotation Yrotation Zrotation
												End Site
												{
													OFFSET -0.606308 5.116241 0.814926
												}
											}
										}
									}
								}
							}
						}
					}
				}
				JOINT mixamorig:RightShoulder
				{
					OFFSET -12.001300 18.284088 1.348900
					CHANNELS 3 Xrotation Yrotation Zrotation
					JOINT mixamorig:RightArm
					{
						OFFSET -25.308500 -0.751312 -5.164599
						CHANNELS 3 Xrotation Yrotation Zrotation
						JOINT mixamorig:RightForeArm
						{
							OFFSET -54.684429 0.000000 0.000000
							CHANNELS 3 Xrotation Yrotation Zrotation
							JOINT mixamorig:RightHand
							{
								OFFSET -55.150291 0.000000 0.000000
								CHANNELS 3 Xrotation Yrotation Zrotation
								JOINT mixamorig:RightHandMiddle1
								{
									OFFSET -23.317566 0.000000 0.000000
									CHANNELS 3 Xrotation Yrotation Zrotation
									JOINT mixamorig:RightHandMiddle2
									{
										OFFSET -6.378403 0.000000 0.000000
										CHANNELS 3 Xrotation Yrotation Zrotation
										JOINT mixamorig:RightHandMiddle3
										{
											OFFSET -6.148193 0.000000 0.000000
											CHANNELS 3 Xrotation Yrotation Zrotation
											JOINT mixamorig:RightHandMiddle4
											{
												OFFSET -6.583389 0.000000 0.000000
												CHANNELS 3 Xrotation Yrotation Zrotation
												End Site
												{
													OFFSET 1.171692 6.395905 1.029786
												}
											}
										}
									}
								}
								JOINT mixamorig:RightHandThumb1
								{
									OFFSET -7.190521 -3.860474 5.435846
									CHANNELS 3 Xrotation Yrotation Zrotation
									JOINT mixamorig:RightHandThumb2
									{
										OFFSET -6.567429 -3.791718 3.791708
										CHANNELS 3 Xrotation Yrotation Zrotation
										JOINT mixamorig:RightHandThumb3
										{
											OFFSET -6.062469 -3.500153 3.500166
											CHANNELS 3 Xrotation Yrotation Zrotation
											JOINT mixamorig:RightHandThumb4
											{
												OFFSET -4.792618 -2.767029 2.767022
												CHANNELS 3 Xrotation Yrotation Zrotation
												End Site
												{
													OFFSET -0.100327 6.053253 1.276754
												}
											}
										}
									}
								}
								JOINT mixamorig:RightHandIndex1
								{
									OFFSET -23.048981 -0.310791 4.992554
									CHANNELS 3 Xrotation Yrotation Zrotation
									JOINT mixamorig:RightHandIndex2
									{
										OFFSET -6.227539 0.000000 0.000000
										CHANNELS 3 Xrotation Yrotation Zrotation
										JOINT mixamorig:RightHandIndex3
										{
											OFFSET -6.095047 0.000000 0.000000
											CHANNELS 3 Xrotation Yrotation Zrotation
											JOINT mixamorig:RightHandIndex4
											{
												OFFSET -5.484772 0.000000 0.000000
												CHANNELS 3 Xrotation Yrotation Zrotation
												End Site
												{
													OFFSET 1.420593 5.237305 0.797056
												}
											}
										}
									}
								}
								JOINT mixamorig:RightHandRing1
								{
									OFFSET -22.246323 0.020569 -3.963762
									CHANNELS 3 Xrotation Yrotation Zrotation
									JOINT mixamorig:RightHandRing2
									{
										OFFSET -6.322128 0.000000 0.000000
										CHANNELS 3 Xrotation Yrotation Zrotation
										JOINT mixamorig:RightHandRing3
										{
											OFFSET -5.900024 0.000000 0.000000
											CHANNELS 3 Xrotation Yrotation Zrotation
											JOINT mixamorig:RightHandRing4
											{
												OFFSET -6.518356 0.000000 0.000000
												CHANNELS 3 Xrotation Yrotation Zrotation
												End Site
												{
													OFFSET 1.636398 6.232697 0.982186
												}
											}
										}
									}
								}
								JOINT mixamorig:RightHandPinky1
								{
									OFFSET -20.411011 -0.303314 -8.561701
									CHANNELS 3 Xrotation Yrotation Zrotation
									JOINT mixamorig:RightHandPinky2
									{
										OFFSET -6.907349 0.000000 0.000000
										CHANNELS 3 Xrotation Yrotation Zrotation
										JOINT mixamorig:RightHandPinky3
										{
											OFFSET -4.623840 0.000000 0.000000
											CHANNELS 3 Xrotation Yrotation Zrotation
											JOINT mixamorig:RightHandPinky4
											{
												OFFSET -5.218353 0.000000 0.000000
												CHANNELS 3 Xrotation Yrotation Zrotation
												End Site
												{
													OFFSET 0.602097 5.118835 0.816273
												}
											}
										}
									}
								}
							}
						}
					}
				}
			}
		}
	}
	JOINT mixamorig:LeftUpLeg
	{
		OFFSET 18.168400 -13.561905 -0.039000
		CHANNELS 3 Xrotation Yrotation Zrotation
		JOINT mixamorig:LeftLeg
		{
			OFFSET 0.577358 -80.825211 -3.695000
			CHANNELS 3 Xrotation Yrotation Zrotation
			JOINT mixamorig:LeftFoot
			{
				OFFSET -0.577356 -83.370262 -6.520700
				CHANNELS 3 Xrotation Yrotation Zrotation
				JOINT mixamorig:LeftToeBase
				{
					OFFSET 0.750401 -20.798306 25.135401
					CHANNELS 3 Xrotation Yrotation Zrotation
					JOINT mixamorig:LeftToe_End
					{
						OFFSET -0.000500 0.001200 19.917799
						CHANNELS 3 Xrotation Yrotation Zrotation
						End Site
						{
							OFFSET 0.000000 19.917805 0.000000
						}
					}
				}
			}
		}
	}
	JOINT mixamorig:RightUpLeg
	{
		OFFSET -18.162500 -13.585098 -0.041000
		CHANNELS 3 Xrotation Yrotation Zrotation
		JOINT mixamorig:RightLeg
		{
			OFFSET -0.595024 -80.945297 -3.631900
			CHANNELS 3 Xrotation Yrotation Zrotation
			JOINT mixamorig:RightFoot
			{
				OFFSET 0.595024 -83.218193 -6.561200
				CHANNELS 3 Xrotation Yrotation Zrotation
				JOINT mixamorig:RightToeBase
				{
					OFFSET -0.753601 -20.807106 25.115000
					CHANNELS 3 Xrotation Yrotation Zrotation
					JOINT mixamorig:RightToe_End
					{
						OFFSET 0.000299 0.001700 19.918200
						CHANNELS 3 Xrotation Yrotation Zrotation
						End Site
						{
							OFFSET 0.000000 19.918203 0.000000
						}
					}
				}
			}
		}
	}
}
MOTION
Frames: 4
Frame Time: 0.033333
0.182312 120.181366 0.109604 -8.091962 2.709260 6.396921 7.368410 3.610274 -1.385706 14.840635 7.366514 -2.924663 14.840637 7.366514 -2.924661 -3.810710 -2.656386 4.649684 -30.994681 -9.100509 0.615379 0.000000 -0.000000 0.000000 0.000000 -0.000000 0.000000 0.000000 -0.000000 0.000000 0.527542 -9.210549 -9.992167 21.452869 -15.454932 -43.224074 -1.619207 -110.099023 -1.531049 67.970914 -2.720766 28.888746 -1.607041 10.263479 19.398849 -0.192042 -1.055328 -17.835514 -0.000000 0.000004 0.000005 -0.000002 0.000001 0.000001 -11.783871 -21.488516 21.340028 4.864373 18.794766 -4.581295 -0.000002 0.000020 0.000001 0.000003 0.000001 0.000002 -7.678320 5.037476 22.394824 0.716687 1.411849 -16.522713 -0.000002 0.000003 -0.000002 -0.000000 -0.000000 0.000000 1.516654 8.472239 12.712678 -0.227257 -0.290559 -18.546837 0.000001 0.000001 0.000002 -0.000000 0.000001 0.000000 5.622158 19.401207 10.858604 -0.896772 -3.331825 -19.656782 0.000001 -0.000005 -0.000000 -0.000001 0.000000 0.000001 0.371961 -2.061246 -9.156452 -81.458591 53.184303 17.307114 12.964974 27.128376 -6.114550 23.921132 -2.078079 6.471692 -0.585606 4.168097 83.339578 -3.944283 3.562040 91.873175 0.000003 0.000000 0.000009 0.000001 0.000001 -0.000001 14.173670 2.256054 2.181144 18.947903 -33.594176 6.424223 0.000003 -0.000003 -0.000002 0.000001 -0.000001 0.000004 -5.995403 12.422596 1.142481 -2.752994 -13.096654 13.991778 -0.000001 -0.000008 -0.000000 0.000002 -0.000000 -0.000001 -3.761638 -4.122510 87.361302 -3.019566 2.562590 79.514002 -0.000001 0.000007 -0.000001 0.000000 0.000001 -0.000003 -1.961530 -11.870584 94.717013 -4.626671 4.518081 74.931984 0.000001 -0.000011 -0.000009 -0.000002 0.000001 -0.000003 -83.536465 9.696272 3.653812 81.976689 -0.975326 -2.302287 7.946413 1.618163 5.991719 1.282625 0.007826 -0.005274 0.000000 0.000000 0.000000 -86.047474 5.990902 -3.464211 85.652532 2.244429 2.461239 7.798056 -16.815845 -2.802588 -0.370203 0.002368 -0.001810 -0.000000 -0.000000 0.000000 
0.217836 120.151031 0.083538 -8.182279 2.699085 6.397080 7.350428 3.619595 -1.378592 14.804517 7.384818 -2.910886 14.804515 7.384822 -2.910888 -3.690836 -2.652603 4.748558 -30.780200 -9.073465 0.776900 0.000000 0.000000 0.000000 0.000000 0.000000 0.000000 0.000000 0.000000 0.000000 0.535835 -9.388322 -9.968885 21.367975 -15.356608 -43.413359 -1.619061 -110.088661 -1.531343 67.975231 -2.749679 28.605765 -1.615706 10.286543 19.413664 -0.192605 -1.057134 -17.871834 -0.000001 0.000004 0.000002 -0.000001 -0.000000 -0.000000 -11.793907 -21.490673 21.322623 4.862154 18.789364 -4.579526 0.000001 0.000020 0.000005 0.000004 -0.000001 -0.000000 -7.681935 5.047739 22.420415 0.716441 1.411293 -16.514465 0.000000 0.000002 -0.000003 -0.000002 0.000000 0.000000 1.511246 8.440145 12.782632 -0.227247 -0.290529 -18.546718 0.000001 0.000001 0.000001 -0.000001 0.000001 0.000001 5.595092 19.422463 10.989321 -0.898153 -3.334921 -19.675250 0.000000 -0.000004 0.000000 0.000000 0.000000 0.000001 0.396483 -1.741421 -9.372587 -80.790462 53.140415 16.569740 13.012380 27.039445 -6.121451 23.564988 -2.230406 6.992393 -0.601275 4.152230 83.385046 -3.942468 3.562107 91.845643 -0.000001 0.000002 -0.000000 0.000000 -0.000001 0.000003 14.172817 2.256934 2.193645 18.961481 -33.611842 6.433687 0.000003 -0.000005 -0.000004 0.000004 0.000001 0.000005 -5.999376 12.431977 1.144048 -2.752980 -13.096665 13.991777 0.000003 -0.000008 0.000004 0.000001 0.000001 0.000002 -3.759201 -4.103888 87.406532 -3.019396 2.562573 79.511612 -0.000004 0.000006 0.000002 -0.000000 0.000000 -0.000002 -1.956005 -11.889583 94.743419 -4.626664 4.518086 74.931990 0.000002 -0.000012 -0.000005 0.000000 -0.000000 0.000002 -83.466250 9.742808 3.680118 81.994966 -0.971852 -2.302280 7.934130 1.653839 6.045808 1.297704 0.007913 -0.005337 0.000000 0.000000 0.000000 -85.972015 5.962284 -3.525598 85.671514 2.242804 2.461210 7.788007 -16.740676 -2.806076 -0.371639 0.002371 -0.001816 -0.000000 -0.000001 0.000000 
0.241913 120.154266 0.051041 -8.242624 2.684768 6.413454 7.325205 3.621135 -1.379530 14.754148 7.386241 -2.912489 14.754148 7.386233 -2.912490 -3.649156 -2.653382 4.799600 -30.611252 -9.097413 0.945675 -0.000000 0.000001 -0.000000 -0.000000 0.000001 -0.000000 -0.000000 0.000001 -0.000000 0.539448 -9.486487 -9.978906 21.316790 -15.294960 -43.507523 -1.622821 -110.038166 -1.535642 67.949078 -2.753019 28.362333 -1.614213 10.281638 19.419346 -0.192319 -1.056217 -17.853633 -0.000000 0.000004 0.000002 -0.000000 -0.000000 0.000001 -11.787379 -21.479323 21.327305 4.859186 18.782112 -4.577138 -0.000002 0.000021 0.000001 -0.000001 -0.000001 0.000001 -7.686096 5.057173 22.384593 0.716405 1.411211 -16.513009 -0.000000 0.000002 0.000002 -0.000000 0.000000 -0.000001 1.511074 8.440223 12.788679 -0.227253 -0.290540 -18.546607 0.000002 0.000003 0.000000 -0.000000 -0.000000 -0.000002 5.595060 19.422818 10.990019 -0.897184 -3.332740 -19.662327 0.000000 -0.000005 0.000001 -0.000001 0.000000 0.000001 0.415384 -1.479115 -9.510480 -80.264934 53.135491 16.139394 13.044977 26.939729 -6.119255 23.177415 -2.413709 7.523317 -0.603024 4.124916 83.348976 -3.945115 3.562013 91.885640 0.000000 0.000003 0.000003 -0.000001 -0.000000 -0.000003 14.175738 2.251854 2.172713 18.953734 -33.601812 6.428328 0.000002 -0.000000 0.000001 0.000000 0.000000 -0.000001 -5.993617 12.433045 1.126655 -2.753016 -13.096635 13.991785 0.000003 -0.000009 0.000001 0.000002 0.000001 0.000003 -3.749462 -4.077732 87.357457 -3.021540 2.563004 79.546015 -0.000004 0.000006 0.000003 -0.000001 -0.000000 0.000000 -1.958346 -11.889502 94.716631 -4.625437 4.518042 74.931990 0.000000 -0.000013 -0.000003 -0.000002 0.000001 -0.000003 -83.388898 9.828069 3.723377 81.946274 -0.972595 -2.301980 7.998496 1.694444 6.115324 1.354064 0.008266 -0.005572 0.000000 0.000000 0.000000 -85.908316 5.900840 -3.633351 85.660572 2.241126 2.461135 7.775816 -16.605829 -2.869768 -0.377539 0.002406 -0.001842 -0.000000 -0.000002 0.000000 
0.249352 120.207672 -0.008411 -8.290803 2.691214 6.460201 7.302943 3.618335 -1.385821 14.709770 7.379171 -2.923756 14.709784 7.379178 -2.923757 -3.671588 -2.663734 4.789428 -30.541396 -9.182669 1.031819 0.000001 0.000000 -0.000000 0.000001 0.000000 -0.000000 0.000001 0.000000 -0.000000 0.543378 -9.588052 -9.985524 21.238861 -15.238821 -43.584571 -1.632226 -109.917442 -1.545960 67.899662 -2.771575 28.157928 -1.601665 10.245301 19.424549 -0.192171 -1.055769 -17.844660 -0.000000 0.000003 0.000000 -0.000000 0.000000 -0.000000 -11.789560 -21.491096 21.331060 4.862414 18.789992 -4.579714 -0.000003 0.000019 0.000002 -0.000001 0.000000 0.000002 -7.703898 5.104146 22.415477 0.716010 1.410327 -16.499261 0.000000 0.000001 0.000003 0.000001 -0.000001 -0.000001 1.511019 8.441511 12.795033 -0.227244 -0.290540 -18.546484 0.000002 0.000003 0.000000 -0.000000 0.000000 0.000001 5.600963 19.417750 10.960844 -0.898226 -3.335089 -19.676252 0.000000 -0.000004 0.000000 0.000000 0.000001 0.000001 0.411306 -1.395331 -9.597925 -80.060418 53.175208 16.149584 13.060801 26.831896 -6.107550 22.740801 -2.614214 7.985040 -0.594703 4.119702 83.302640 -3.944166 3.562038 91.871433 0.000000 -0.000001 0.000007 0.000000 -0.000001 0.000004 14.171927 2.261104 2.173294 18.956550 -33.605456 6.430275 -0.000001 0.000001 0.000002 -0.000002 0.000000 -0.000000 -5.998966 12.431960 1.142900 -2.752444 -13.096681 13.991784 0.000001 -0.000008 -0.000001 -0.000000 0.000002 -0.000000 -3.751359 -4.076012 87.398486 -3.019452 2.562566 79.512268 -0.000002 0.000005 0.000003 -0.000001 0.000001 -0.000002 -1.957989 -11.886000 94.727504 -4.626528 4.518075 74.932011 0.000001 -0.000012 -0.000006 0.000000 0.000000 -0.000000 -83.271604 9.943243 3.733688 81.807498 -0.976156 -2.301002 8.129389 1.748648 6.180290 1.439236 0.008777 -0.005928 -0.000000 0.000000 -0.000000 -85.826388 5.869827 -3.757271 85.603451 2.238769 2.460952 7.780735 -16.474201 -2.929533 -0.383935 0.002452 -0.001872 -0.000000 -0.000002 -0.000000 
